<?xml version="1.0" encoding="UTF-8" standalone="no"?>
<!-- Generator: Adobe Illustrator 18.1.1, SVG Export Plug-In . SVG Version: 6.00 Build 0)  -->

<svg
   xmlns:dc="http://purl.org/dc/elements/1.1/"
   xmlns:cc="http://creativecommons.org/ns#"
   xmlns:rdf="http://www.w3.org/1999/02/22-rdf-syntax-ns#"
   xmlns:svg="http://www.w3.org/2000/svg"
   xmlns="http://www.w3.org/2000/svg"
   xmlns:sodipodi="http://sodipodi.sourceforge.net/DTD/sodipodi-0.dtd"
   xmlns:inkscape="http://www.inkscape.org/namespaces/inkscape"
   version="1.1"
   id="Capa_1"
   x="0px"
   y="0px"
   viewBox="0 0 492 492"
   style="enable-background:new 0 0 492 492;"
   xml:space="preserve"
   inkscape:version="0.91 r13725"
   sodipodi:docname="swim3.svg"><metadata
     id="metadata17"><rdf:RDF><cc:Work
         rdf:about=""><dc:format>image/svg+xml</dc:format><dc:type
           rdf:resource="http://purl.org/dc/dcmitype/StillImage" /><dc:title></dc:title></cc:Work></rdf:RDF></metadata><defs
     id="defs15" /><sodipodi:namedview
     pagecolor="#ffffff"
     bordercolor="#666666"
     borderopacity="1"
     objecttolerance="10"
     gridtolerance="10"
     guidetolerance="10"
     inkscape:pageopacity="0"
     inkscape:pageshadow="2"
     inkscape:window-width="1083"
     inkscape:window-height="557"
     id="namedview13"
     showgrid="false"
     inkscape:zoom="0.4796748"
     inkscape:cx="246"
     inkscape:cy="246"
     inkscape:window-x="0"
     inkscape:window-y="0"
     inkscape:window-maximized="0"
     inkscape:current-layer="Capa_1" /><g
     id="g3"
     transform="translate(-2.5423723e-8,-68.796611)"><g
       id="g5"><path
         style="fill:#010002"
         d="m 492,420.5 c -10.667,0 -20.667,-2.333 -30,-7 -10.668,-4.667 -21.334,-7 -32,-7 -10.667,0 -21,2.333 -31,7 -9.333,4.667 -19.333,7 -30,7 -10.667,0 -20.667,-2.333 -30,-7 -10.668,-4.667 -21.335,-7 -32,-7 -10.667,0 -21,2.333 -31,7 -9.333,4.667 -19.333,7 -30,7 -10.667,0 -20.667,-2.333 -30,-7 -10,-4.667 -20.333,-7 -31,-7 -10.667,0 -21.333,2.333 -32,7 -9.333,4.667 -19.333,7 -30,7 -10.667,0 -20.667,-2.333 -30,-7 -10,-4.667 -20.333,-7 -31,-7 -10.667,0 -21,2.333 -31,7 -10,4.667 -20.333,7 -31,7 l 0,-45 c 10.667,0 21,-2.333 31,-7 10,-4.667 20.333,-7 31,-7 10.667,0 21,2.333 31,7 10,4.667 20.167,7 30.5,7 10.333,0 20.167,-2.333 29.5,-7 10,-4.667 20.5,-7 31.5,-7 11,0 21.5,2.333 31.5,7 10,4.667 20.167,7 30.5,7 10.334,0 20.167,-2.333 29.5,-7 10,-4.667 20.667,-7 32,-7 10,0 20.333,2.333 31,7 9.335,4.667 19.168,7 29.5,7 10.333,0 20.5,-2.333 30.5,-7 10,-4.667 20.5,-7 31.5,-7 11,0 21.5,2.333 31.5,7 9.333,4.667 19.333,7 30,7 l 0,45 z"
         id="path7"
         inkscape:connector-curvature="0" /><path
         style="fill:#010002"
         d="m 421,292.5 c 16,0 29.667,-5.667 41,-17 11.333,-11.333 17,-25 17,-41 0,-16 -5.667,-29.667 -17,-41 -11.333,-11.333 -25.167,-17 -41.5,-17 -16.333,0 -30.167,5.667 -41.5,17 -11.333,11.333 -17,25 -17,41 0,16.667 5.5,30.5 16.5,41.5 11,11 25.167,16.5 42.5,16.5 z"
         id="path9"
         inkscape:connector-curvature="0" /><path
         style="fill:#010002"
         d="m 80,325.5 c 4,0.667 8.333,2 13,4 10,4.667 20.167,7 30.5,7 10.333,0 20.167,-2.333 29.5,-7 10.667,-4.667 21.167,-7 31.5,-7 10.333,0 20.833,2.333 31.5,7 10,4.667 20.167,7 30.5,7 10.334,0 20.167,-2.333 29.5,-7 10.667,-4.667 21.167,-7 31.5,-7 10.333,0 20.833,2.333 31.5,7 9.333,4.667 19.333,7 30,7 7.336,0 14.67,-1.333 22,-4 l -97,-174 113,-21 c 8.667,-1.333 15.667,-5 21,-11 5.333,-6 8,-13.333 8,-22 0,-8.667 -3.333,-16.333 -10,-23 -6.668,-6.667 -14.335,-10 -23,-10 -2,0 -3.333,0.333 -4,1 l -175,31 c -7.333,2 -13.5,7.167 -18.5,15.5 -5,8.333 -5.5,17.5 -1.5,27.5 l 1,1.5 1,1.5 46,82 -172,94 z"
         id="path11"
         inkscape:connector-curvature="0" /></g></g></svg>