<?xml version="1.0" encoding="UTF-8"?>
<svg xmlns="http://www.w3.org/2000/svg" 
   xmlns:xlink="http://www.w3.org/1999/xlink" width="400pt" height="267pt" viewBox="0 0 400 267" version="1.1">
<g id="surface1">
<path style=" stroke:none;fill-rule:nonzero;fill:rgb(0%,50.588235%,0.784314%);fill-opacity:1;" d="M 291.222656 12.546875 C 243.082031 18.691406 178.722656 36.847656 144.949219 54.203125 C 90.691406 81.433594 65.957031 116.410156 82.980469 141.511719 C 97.339844 163.136719 140.957031 183.699219 177.128906 186.097656 C 200.265625 187.96875 212.5 184.230469 226.59375 171.410156 C 239.894531 159.132812 245.214844 148.988281 245.214844 134.570312 C 245.214844 114.542969 231.386719 102.796875 208.246094 103.0625 C 174.46875 103.863281 143.613281 143.375 157.183594 168.742188 C 161.703125 177.289062 158.246094 177.023438 147.871094 167.945312 C 123.9375 146.851562 124.203125 123.625 148.9375 95.316406 C 175.265625 65.414062 235.371094 34.710938 301.859375 17.355469 C 324.46875 11.210938 325 10.945312 312.5 11.210938 C 305.316406 11.484375 295.746094 12.015625 291.222656 12.546875 Z M 291.222656 12.546875 "/>
<path style=" stroke:none;fill-rule:nonzero;fill:rgb(0%,50.588235%,0.784314%);fill-opacity:1;" d="M 284.574219 88.914062 C 330.050781 102.796875 356.386719 124.6875 356.386719 148.988281 C 356.386719 156.726562 354.253906 164.738281 351.0625 170.347656 C 344.152344 181.824219 348.671875 181.292969 357.449219 169.546875 C 372.871094 149.253906 372.871094 131.898438 357.714844 116.675781 C 342.550781 101.460938 310.90625 88.914062 276.59375 84.371094 C 267.019531 83.035156 268.613281 83.839844 284.574219 88.914062 Z M 284.574219 88.914062 "/>
<path style=" stroke:none;fill-rule:nonzero;fill:rgb(0%,50.588235%,0.784314%);fill-opacity:1;" d="M 232.980469 93.449219 C 279.785156 116.144531 288.828125 150.589844 256.652344 182.894531 C 224.46875 215.199219 136.171875 247.242188 63.5625 252.847656 C 52.128906 253.648438 42.550781 255.515625 42.550781 257.125 C 42.550781 258.722656 54.785156 258.988281 76.328125 257.921875 C 198.40625 251.511719 294.949219 216.800781 321.011719 170.078125 C 326.0625 161.003906 325.265625 141.242188 319.417969 131.632812 C 309.574219 115.613281 279.785156 99.320312 243.347656 90.515625 C 215.160156 83.839844 213.828125 84.105469 232.980469 93.449219 Z M 232.980469 93.449219 "/>
<path style=" stroke:none;fill-rule:nonzero;fill:rgb(0%,50.588235%,0.784314%);fill-opacity:1;" d="M 44.683594 101.195312 C 22.074219 127.894531 31.652344 153.523438 70.480469 170.878906 C 87.765625 178.625 111.4375 185.300781 113.828125 182.894531 C 114.628906 182.09375 113.5625 181.558594 111.4375 181.558594 C 103.988281 181.558594 74.734375 165.804688 63.828125 155.664062 C 45.746094 139.644531 40.160156 118.816406 49.203125 101.460938 C 54.519531 91.3125 52.925781 91.3125 44.683594 101.195312 Z M 44.683594 101.195312 "/>
</g>
</svg>
