<?xml version="1.0" encoding="UTF-8" standalone="no"?>
<svg
   xmlns:dc="http://purl.org/dc/elements/1.1/"
   xmlns:cc="http://creativecommons.org/ns#"
   xmlns:rdf="http://www.w3.org/1999/02/22-rdf-syntax-ns#"
   xmlns:svg="http://www.w3.org/2000/svg"
   xmlns="http://www.w3.org/2000/svg"
   xmlns:sodipodi="http://sodipodi.sourceforge.net/DTD/sodipodi-0.dtd"
   xmlns:inkscape="http://www.inkscape.org/namespaces/inkscape"
   width="400pt"
   height="267pt"
   viewBox="0 0 400 267"
   version="1.1"
   id="svg11"
   style='stroke-width: 0px; background-color: #007f00;'
   
   sodipodi:docname="ecn.svg"
   inkscape:version="0.92.3 (2405546, 2018-03-11)">
  <metadata
     id="metadata17">
    <rdf:RDF>
      <cc:Work
         rdf:about="">
        <dc:format>image/svg+xml</dc:format>
        <dc:type
           rdf:resource="http://purl.org/dc/dcmitype/StillImage" />
      </cc:Work>
    </rdf:RDF>
  </metadata>
  <defs
     id="defs15" />
  <sodipodi:namedview
     pagecolor="#ffffff"
     bordercolor="#666666"
     borderopacity="1"
     objecttolerance="10"
     gridtolerance="10"
     guidetolerance="10"
     inkscape:pageopacity="0"
     inkscape:pageshadow="2"
     inkscape:window-width="1055"
     inkscape:window-height="679"
     id="namedview13"
     showgrid="false"
     inkscape:zoom="0.628125"
     inkscape:cx="265.07463"
     inkscape:cy="178"
     inkscape:window-x="448"
     inkscape:window-y="182"
     inkscape:window-maximized="0"
     inkscape:current-layer="svg11" />
  <g
     id="surface1"  
     transform="matrix(1.177468,0,0,1.0723897,-35.643676,-11.553067)">
    <path
       style="fill:#FFFFFF;fill-opacity:1;fill-rule:nonzero;stroke:none"
       d="m 291.22266,12.546875 c -48.14063,6.144531 -112.5,24.300781 -146.27344,41.65625 -54.257814,27.230469 -78.992189,62.207035 -61.968751,87.308595 14.359375,21.625 57.976561,42.1875 94.148441,44.58594 23.13671,1.87109 35.37109,-1.86719 49.46484,-14.6875 13.30078,-12.27735 18.62109,-22.42188 18.62109,-36.83985 0,-20.02734 -13.82812,-31.77343 -36.96875,-31.50781 -33.77734,0.80078 -64.63281,40.3125 -51.0625,65.67969 4.51953,8.54687 1.0625,8.28125 -9.3125,-0.79688 C 123.9375,146.85156 124.20313,123.625 148.9375,95.316406 175.26562,65.414062 235.37109,34.710938 301.85937,17.355469 324.46875,11.210938 325,10.945312 312.5,11.210938 c -7.18359,0.273437 -16.75391,0.804687 -21.27734,1.335937 z m 0,0"
       id="path2"
       inkscape:connector-curvature="0" />
    <path
       style="fill:#FFFFFF;fill-opacity:1;fill-rule:nonzero;stroke:none"
       d="m 284.57422,88.914062 c 45.47656,13.882818 71.8125,35.773438 71.8125,60.074218 0,7.73828 -2.13281,15.75 -5.32422,21.35938 -6.91016,11.47656 -2.39063,10.94531 6.38672,-0.80079 15.42187,-20.29296 15.42187,-37.64843 0.26562,-52.87109 -15.16406,-15.21484 -46.80859,-27.761718 -81.12109,-32.304686 -9.57422,-1.335938 -7.98047,-0.53125 7.98047,4.542968 z m 0,0"
       id="path4"
       inkscape:connector-curvature="0" />
    <path
       style="fill:#FFFFFF;fill-opacity:1;fill-rule:nonzero;stroke:none"
       d="m 232.98047,93.449219 c 46.80469,22.695311 55.84765,57.140621 23.67187,89.445311 -32.18359,32.30469 -120.48047,64.34766 -193.08984,69.95313 -11.433594,0.80078 -21.011719,2.66796 -21.011719,4.27734 0,1.59766 12.234375,1.86328 33.777344,0.79687 122.078125,-6.41015 218.621095,-41.12109 244.683595,-87.84375 5.05078,-9.07421 4.2539,-28.83593 -1.59375,-38.44531 -9.84375,-16.01953 -39.63281,-32.312498 -76.07031,-41.117185 -28.1875,-6.675781 -29.51954,-6.410156 -10.36719,2.933594 z m 0,0"
       id="path6"
       inkscape:connector-curvature="0" />
    <path
       style="fill:#FFFFFF;fill-opacity:1;fill-rule:nonzero;stroke:none"
       d="m 44.683594,101.19531 c -22.609375,26.69922 -13.03125,52.32813 25.796875,69.6836 17.285156,7.74609 40.957031,14.42187 43.347661,12.01562 0.80078,-0.80078 -0.26563,-1.33594 -2.39063,-1.33594 -7.44922,0 -36.703125,-15.7539 -47.609375,-25.89453 -18.082031,-16.01953 -23.667969,-36.84765 -14.625,-54.20312 5.316406,-10.14844 3.722656,-10.14844 -4.519531,-0.26563 z m 0,0"
       id="path8"
       inkscape:connector-curvature="0" />
  </g>
</svg>
